<svg width="37" height="38" viewBox="0 0 37 38" fill="none" xmlns="http://www.w3.org/2000/svg">
<g clip-path="url(#clip0_1609_3042)">
<path d="M15.0194 12.5802L12.3511 10.3566L6.27783 18.2088L8.7933 20.2794C8.7933 20.2794 8.04284 22.5031 9.09906 23.6845C10.1275 24.8797 11.0169 23.9902 11.0169 23.9902C11.0169 23.9902 10.2665 26.7975 11.6006 27.548C12.9348 28.2984 12.9348 26.9643 12.9348 26.9643C12.9348 26.9643 13.8243 29.1879 14.7137 29.3269C15.6031 29.4658 15.7422 29.1879 15.7422 29.1879C15.7422 29.1879 16.6316 30.661 17.8129 30.3831C19.0081 30.0773 19.1471 29.4936 19.1471 29.4936C19.1471 29.4936 23.1496 31.7173 23.1496 30.2442C23.1496 28.771 23.1496 28.6042 23.1496 28.6042C23.1496 28.6042 25.5122 28.6042 25.5122 27.5758C25.5122 26.5473 25.5122 26.5473 25.5122 26.5473C25.5122 26.5473 27.583 25.7969 27.583 24.9075C27.583 24.018 27.4439 23.879 27.4439 23.879C27.4439 23.879 28.7782 22.8506 28.4724 21.8083C28.1667 20.7798 26.9993 19.5846 26.9993 19.5846L29.3619 17.0691L30.3904 15.2902L24.4699 9.50879L22.3992 11.7324C22.3992 11.7324 19.7308 10.704 18.2577 10.843C16.7845 10.982 15.0194 12.5802 15.0194 12.5802Z" fill="white" stroke="white" stroke-width="32.8183" stroke-miterlimit="10" stroke-linejoin="round"/>
<path d="M23.0943 16.0269C23.0943 16.0269 22.2604 16.3326 20.5232 15.7767C19.3558 15.4293 19.884 15.9573 19.1334 15.6933C19.1334 15.6933 15.395 19.2511 13.2826 17.7641C11.5314 16.541 12.4209 13.8589 13.8663 12.4691C15.3672 11.0793 18.4386 9.60616 19.6476 9.88411C20.8568 10.1621 21.9964 11.2044 22.5245 10.8847C23.0525 10.5512 23.9698 9.57835 24.2895 9.56446C24.6092 9.53666 26.3325 9.64785 28.6534 13.0945C30.474 15.8324 30.0154 17.3194 29.9597 17.5418C29.7374 18.2088 26.8467 21.1551 27.6806 20.1545L26.2352 19.126C26.4575 19.2095 28.7229 16.555 28.6116 16.1102C28.5005 15.6794 27.8473 13.984 26.3603 12.5247C24.901 11.0376 24.359 10.9542 24.359 10.9542C24.359 10.9542 22.8581 12.3301 22.2326 12.205C21.5934 12.066 20.2453 10.4956 17.9105 11.8159C15.5757 13.1362 13.4354 14.7205 13.7828 15.8045C14.1303 16.8885 15.0615 16.4994 16.5207 15.4154C17.9938 14.3313 18.508 13.984 19.3697 14.4148C20.2313 14.8594 21.0652 15.4154 22.2188 15.5265C23.3722 15.6378 24.1506 15.5822 23.9699 15.6378C23.7475 15.6795 23.0943 16.0269 23.0943 16.0269Z" fill="black" stroke="white" stroke-width="32.8183" stroke-miterlimit="10" stroke-linejoin="round"/>
<path d="M12.7401 20.3908C12.7401 20.3908 13.1848 19.3624 12.1564 18.6397C11.128 17.917 9.23788 17.9448 8.07047 20.4463C6.95867 22.948 8.65418 24.852 9.64092 24.7964C10.6276 24.7407 11.1836 24.3238 11.5588 23.7123C11.9201 23.1009 11.9201 23.1009 11.9201 23.1009C11.9201 23.1009 10.169 24.4211 9.57142 23.629C8.95994 22.8229 9.1267 21.6555 10.0717 20.4463C11.0168 19.2234 11.5727 19.14 12.0035 19.5013C12.4482 19.8626 12.3927 21.2664 12.3927 21.2664L12.7401 20.3908Z" fill="black" stroke="white" stroke-width="32.8183" stroke-miterlimit="10" stroke-linejoin="round"/>
<path d="M15.3807 23.629C15.4086 23.0731 16.4647 20.8494 13.7964 20.4047C11.5172 20.0712 9.51592 23.5734 10.0718 26.1862C10.6277 28.6322 12.1565 28.1458 12.7124 27.7705C13.2683 27.4092 14.1299 26.0749 14.1299 26.0749C14.1299 26.0749 11.7256 27.7149 11.5589 26.5197C11.3921 25.3245 11.545 24.2543 12.2955 22.9202C13.0876 21.5582 13.8104 21.2246 14.4357 21.8918C15.0611 22.5589 14.6858 24.2683 14.6858 24.2683L15.3807 23.629Z" fill="black" stroke="white" stroke-width="32.8183" stroke-miterlimit="10" stroke-linejoin="round"/>
<path d="M17.4517 26.0054C17.4239 25.3383 18.1327 24.018 17.0764 23.2954C16.0758 22.5727 13.741 23.0174 12.7403 25.519C11.7397 27.9093 13.324 29.8273 14.3247 29.7717C15.3253 29.716 15.8672 29.2992 16.2425 28.6877C16.6178 28.0762 16.6038 28.0762 16.6038 28.0762C16.6038 28.0762 14.8528 29.3965 14.2552 28.6043C13.6437 27.7982 13.8104 26.6308 14.7555 25.4217C15.7005 24.1987 16.2565 24.1153 16.6873 24.4766C17.132 24.838 17.0764 26.2417 17.0764 26.2417L17.4517 26.0054Z" fill="black" stroke="white" stroke-width="32.8183" stroke-miterlimit="10" stroke-linejoin="round"/>
<path d="M19.7449 27.0338C19.7449 27.0338 19.4114 24.9074 17.9105 25.0743C15.6312 25.3522 14.6306 28.6321 15.4645 30.0774C16.2427 31.5228 17.98 30.6054 18.5497 29.9384C19.1334 29.2713 19.467 28.3541 19.3281 28.3541C19.189 28.3541 17.285 30.7583 16.7291 29.6604C16.1733 28.5486 17.3128 27.3256 17.8132 26.6168C18.0216 26.325 18.7026 26.0053 18.9806 26.7281C19.2585 27.4507 18.3969 28.3679 18.6748 28.3819C18.9528 28.4097 19.4531 27.826 19.6198 27.4091C19.7727 27.006 19.7449 27.0338 19.7449 27.0338Z" fill="black" stroke="white" stroke-width="32.8183" stroke-miterlimit="10" stroke-linejoin="round"/>
<path d="M18.4382 29.6326C18.4382 29.6326 20.4256 31.9397 22.0933 31.8284C23.6776 31.6061 24.0667 29.855 23.9556 29.6882C23.8445 29.5215 23.8444 29.5215 23.8444 29.5215C23.8444 29.5215 24.6782 30.133 25.6511 29.3825C26.6239 28.6321 26.4293 27.5202 26.4293 27.5202C26.4293 27.5202 27.9025 27.6313 28.3055 26.2972C28.7225 24.977 28.2777 24.3793 28.2777 24.3793C28.2777 24.3793 29.7231 23.6289 29.2507 21.975C28.7781 20.3211 27.8886 19.807 27.291 18.7786L23.3301 15.8879L22.274 15.8601L19.147 14.6787L17.7017 15.4015C19.147 15.1373 21.4262 17.0691 23.6498 18.6257C25.8178 20.2378 27.8191 20.9604 27.6524 22.3502C27.43 23.74 26.0402 22.8784 25.4983 22.4336C24.9423 21.9889 24.7477 22.378 25.0119 22.7115C25.3454 23.1841 27.1521 24.3793 26.5684 25.2271C26.0402 25.8942 25.2341 25.6718 24.4559 25.1159C23.5665 24.5599 23.0384 24.4488 23.0661 24.5877C23.0939 24.7268 23.9834 25.7135 24.4837 26.3806C24.9284 26.9365 25.0674 27.6036 24.2891 28.0206C23.5108 28.4652 22.0238 27.2283 21.6903 27.1172C21.3568 27.006 21.5235 27.4785 21.7181 27.7564C21.9127 28.0344 23.1912 29.4102 22.3018 30.0217C21.4123 30.5777 19.9114 28.7988 19.4666 28.4652C18.9664 28.0761 18.9107 28.5903 18.9107 28.5903L18.1881 29.3686L18.4382 29.6326Z" fill="black" stroke="white" stroke-width="32.8183" stroke-miterlimit="10" stroke-linejoin="round"/>
<path d="M9.18241 21.4193C9.05733 20.8356 7.06996 19.6264 7.02827 19.2929C6.8615 18.0004 6.90318 15.5127 9.09902 12.9833C11.3365 10.4122 13.574 11.1627 13.7409 11.2878C13.9076 11.4129 15.8115 12.6081 15.3251 12.6498L14.5747 13.3447L13.1016 12.3718C13.1016 12.3718 12.4623 11.7881 11.0586 12.8443C9.64104 13.9005 8.40413 16.7217 8.15398 17.7085C7.90382 18.7092 8.29296 18.9038 8.29296 18.9038L9.71052 20.3213L9.43256 21.044L9.18241 21.4193Z" fill="black" stroke="white" stroke-width="32.8183" stroke-miterlimit="10" stroke-linejoin="round"/>
<path d="M21.3569 9.84245C21.3569 9.84245 21.3985 10.9682 22.1908 11.4268C22.3575 11.5519 22.9552 10.6763 23.1497 10.8153C24.0808 11.4546 25.3316 12.5108 26.7631 14.2064C27.8193 15.4571 28.5281 16.4439 29.0007 17.2221C29.2091 17.5696 27.9722 18.0837 28.0834 18.32C28.5003 19.1816 29.9457 19.3207 29.9457 19.3207L34.0594 15.0124C34.0594 15.0124 31.3633 8.53606 25.1787 6.17346L21.3569 9.84245Z" fill="black" stroke="white" stroke-width="32.8183" stroke-miterlimit="10" stroke-linejoin="round"/>
<path d="M15.0337 11.0237C15.0337 11.0237 15.117 12.1216 14.5473 12.4969C14.3804 12.6219 13.7967 11.802 13.5743 11.9827C12.6849 12.7053 11.4758 13.9284 10.1277 15.9017C8.91865 17.6946 8.25156 18.9731 7.90413 19.821C7.80683 20.0572 8.82137 19.4874 8.61291 20.3629C8.40444 21.1551 7.48719 21.308 7.48719 21.308L2.95654 17.4444C2.95654 17.4444 4.95781 10.718 10.8643 7.71606L15.0337 11.0237Z" fill="black" stroke="white" stroke-width="32.8183" stroke-miterlimit="10" stroke-linejoin="round"/>
<path d="M15.0194 12.5802L12.3511 10.3566L6.27783 18.2088L8.7933 20.2794C8.7933 20.2794 8.04284 22.5031 9.09906 23.6845C10.1275 24.8797 11.0169 23.9902 11.0169 23.9902C11.0169 23.9902 10.2665 26.7975 11.6006 27.548C12.9348 28.2984 12.9348 26.9643 12.9348 26.9643C12.9348 26.9643 13.8243 29.1879 14.7137 29.3269C15.6031 29.4658 15.7422 29.1879 15.7422 29.1879C15.7422 29.1879 16.6316 30.661 17.8129 30.3831C19.0081 30.0773 19.1471 29.4936 19.1471 29.4936C19.1471 29.4936 23.1496 31.7173 23.1496 30.2442C23.1496 28.771 23.1496 28.6042 23.1496 28.6042C23.1496 28.6042 25.5122 28.6042 25.5122 27.5758C25.5122 26.5473 25.5122 26.5473 25.5122 26.5473C25.5122 26.5473 27.583 25.7969 27.583 24.9075C27.583 24.018 27.4439 23.879 27.4439 23.879C27.4439 23.879 28.7782 22.8506 28.4724 21.8083C28.1667 20.7798 26.9993 19.5846 26.9993 19.5846L29.3619 17.0691L30.3904 15.2902L24.4699 9.50879L22.3992 11.7324C22.3992 11.7324 19.7308 10.704 18.2577 10.843C16.7845 10.982 15.0194 12.5802 15.0194 12.5802Z" fill="white"/>
<path d="M23.0943 16.0269C23.0943 16.0269 22.2604 16.3326 20.5232 15.7767C19.3558 15.4293 19.884 15.9573 19.1334 15.6933C19.1334 15.6933 15.395 19.2511 13.2826 17.7641C11.5314 16.541 12.4209 13.8589 13.8663 12.4691C15.3672 11.0793 18.4386 9.60616 19.6476 9.88411C20.8568 10.1621 21.9964 11.2044 22.5245 10.8847C23.0525 10.5512 23.9698 9.57835 24.2895 9.56446C24.6092 9.53666 26.3325 9.64785 28.6534 13.0945C30.474 15.8324 30.0154 17.3194 29.9597 17.5418C29.7374 18.2088 26.8467 21.1551 27.6806 20.1545L26.2352 19.126C26.4575 19.2095 28.7229 16.555 28.6116 16.1102C28.5005 15.6794 27.8473 13.984 26.3603 12.5247C24.901 11.0376 24.359 10.9542 24.359 10.9542C24.359 10.9542 22.8581 12.3301 22.2326 12.205C21.5934 12.066 20.2453 10.4956 17.9105 11.8159C15.5757 13.1362 13.4354 14.7205 13.7828 15.8045C14.1303 16.8885 15.0615 16.4994 16.5207 15.4154C17.9938 14.3313 18.508 13.984 19.3697 14.4148C20.2313 14.8594 21.0652 15.4154 22.2188 15.5265C23.3722 15.6378 24.1506 15.5822 23.9699 15.6378C23.7475 15.6795 23.0943 16.0269 23.0943 16.0269Z" fill="black"/>
<path d="M12.7401 20.3908C12.7401 20.3908 13.1848 19.3624 12.1564 18.6397C11.128 17.917 9.23788 17.9448 8.07047 20.4463C6.95867 22.948 8.65418 24.852 9.64092 24.7964C10.6276 24.7407 11.1836 24.3238 11.5588 23.7123C11.9201 23.1009 11.9201 23.1009 11.9201 23.1009C11.9201 23.1009 10.169 24.4211 9.57142 23.629C8.95994 22.8229 9.1267 21.6555 10.0717 20.4463C11.0168 19.2234 11.5727 19.14 12.0035 19.5013C12.4482 19.8626 12.3927 21.2664 12.3927 21.2664L12.7401 20.3908Z" fill="black"/>
<path d="M15.3807 23.629C15.4086 23.0731 16.4647 20.8494 13.7964 20.4047C11.5172 20.0712 9.51592 23.5734 10.0718 26.1862C10.6277 28.6322 12.1565 28.1458 12.7124 27.7705C13.2683 27.4092 14.1299 26.0749 14.1299 26.0749C14.1299 26.0749 11.7256 27.7149 11.5589 26.5197C11.3921 25.3245 11.545 24.2543 12.2955 22.9202C13.0876 21.5582 13.8104 21.2246 14.4357 21.8918C15.0611 22.5589 14.6858 24.2683 14.6858 24.2683L15.3807 23.629Z" fill="black"/>
<path d="M17.4517 26.0054C17.4239 25.3383 18.1327 24.018 17.0764 23.2954C16.0758 22.5727 13.741 23.0174 12.7403 25.519C11.7397 27.9093 13.324 29.8273 14.3247 29.7717C15.3253 29.716 15.8672 29.2992 16.2425 28.6877C16.6178 28.0762 16.6038 28.0762 16.6038 28.0762C16.6038 28.0762 14.8528 29.3965 14.2552 28.6043C13.6437 27.7982 13.8104 26.6308 14.7555 25.4217C15.7005 24.1987 16.2565 24.1153 16.6873 24.4766C17.132 24.838 17.0764 26.2417 17.0764 26.2417L17.4517 26.0054Z" fill="black"/>
<path d="M19.7449 27.0338C19.7449 27.0338 19.4114 24.9074 17.9105 25.0743C15.6312 25.3522 14.6306 28.6321 15.4645 30.0774C16.2427 31.5228 17.98 30.6054 18.5497 29.9384C19.1334 29.2713 19.467 28.3541 19.3281 28.3541C19.189 28.3541 17.285 30.7583 16.7291 29.6604C16.1733 28.5486 17.3128 27.3256 17.8132 26.6168C18.0216 26.325 18.7026 26.0053 18.9806 26.7281C19.2585 27.4507 18.3969 28.3679 18.6748 28.3819C18.9528 28.4097 19.4531 27.826 19.6198 27.4091C19.7727 27.006 19.7449 27.0338 19.7449 27.0338Z" fill="black"/>
<path d="M18.4382 29.6326C18.4382 29.6326 20.4256 31.9397 22.0933 31.8284C23.6776 31.6061 24.0667 29.855 23.9556 29.6882C23.8445 29.5215 23.8444 29.5215 23.8444 29.5215C23.8444 29.5215 24.6782 30.133 25.6511 29.3825C26.6239 28.6321 26.4293 27.5202 26.4293 27.5202C26.4293 27.5202 27.9025 27.6313 28.3055 26.2972C28.7225 24.977 28.2777 24.3793 28.2777 24.3793C28.2777 24.3793 29.7231 23.6289 29.2507 21.975C28.7781 20.3211 27.8886 19.807 27.291 18.7786L23.3301 15.8879L22.274 15.8601L19.147 14.6787L17.7017 15.4015C19.147 15.1373 21.4262 17.0691 23.6498 18.6257C25.8178 20.2378 27.8191 20.9604 27.6524 22.3502C27.43 23.74 26.0402 22.8784 25.4983 22.4336C24.9423 21.9889 24.7477 22.378 25.0119 22.7115C25.3454 23.1841 27.1521 24.3793 26.5684 25.2271C26.0402 25.8942 25.2341 25.6718 24.4559 25.1159C23.5665 24.5599 23.0384 24.4488 23.0661 24.5877C23.0939 24.7268 23.9834 25.7135 24.4837 26.3806C24.9284 26.9365 25.0674 27.6036 24.2891 28.0206C23.5108 28.4652 22.0238 27.2283 21.6903 27.1172C21.3568 27.006 21.5235 27.4785 21.7181 27.7564C21.9127 28.0344 23.1912 29.4102 22.3018 30.0217C21.4123 30.5777 19.9114 28.7988 19.4666 28.4652C18.9664 28.0761 18.9107 28.5903 18.9107 28.5903L18.1881 29.3686L18.4382 29.6326Z" fill="black"/>
<path d="M9.18241 21.4193C9.05733 20.8356 7.06996 19.6264 7.02827 19.2929C6.8615 18.0004 6.90318 15.5127 9.09902 12.9833C11.3365 10.4122 13.574 11.1627 13.7409 11.2878C13.9076 11.4129 15.8115 12.6081 15.3251 12.6498L14.5747 13.3447L13.1016 12.3718C13.1016 12.3718 12.4623 11.7881 11.0586 12.8443C9.64104 13.9005 8.40413 16.7217 8.15398 17.7085C7.90382 18.7092 8.29296 18.9038 8.29296 18.9038L9.71052 20.3213L9.43256 21.044L9.18241 21.4193Z" fill="black"/>
<path d="M21.3569 9.84245C21.3569 9.84245 21.3985 10.9682 22.1908 11.4268C22.3575 11.5519 22.9552 10.6763 23.1497 10.8153C24.0808 11.4546 25.3316 12.5108 26.7631 14.2064C27.8193 15.4571 28.5281 16.4439 29.0007 17.2221C29.2091 17.5696 27.9722 18.0837 28.0834 18.32C28.5003 19.1816 29.9457 19.3207 29.9457 19.3207L34.0594 15.0124C34.0594 15.0124 31.3633 8.53606 25.1787 6.17346L21.3569 9.84245Z" fill="black"/>
<path d="M15.0337 11.0237C15.0337 11.0237 15.117 12.1216 14.5473 12.4969C14.3804 12.6219 13.7967 11.802 13.5743 11.9827C12.6849 12.7053 11.4758 13.9284 10.1277 15.9017C8.91865 17.6946 8.25156 18.9731 7.90413 19.821C7.80683 20.0572 8.82137 19.4874 8.61291 20.3629C8.40444 21.1551 7.48719 21.308 7.48719 21.308L2.95654 17.4444C2.95654 17.4444 4.95781 10.718 10.8643 7.71606L15.0337 11.0237Z" fill="black"/>
</g>
<defs>
<clipPath id="clip0_1609_3042">
<rect width="37" height="37" fill="white" transform="translate(0 0.5)"/>
</clipPath>
</defs>
</svg>
