<svg width="24" height="19" viewBox="0 0 24 19" fill="none" xmlns="http://www.w3.org/2000/svg">
  <path
    d="M18.2036 1.56958H1.96519C1.10097 1.56958 0.400391 2.27016 0.400391 3.13438V13.1064C0.400391 13.9706 1.10097 14.6712 1.96519 14.6712H18.2036C19.0678 14.6712 19.7684 13.9706 19.7684 13.1064V3.13438C19.7684 2.27016 19.0678 1.56958 18.2036 1.56958Z"
    fill="white" />
  <path
    d="M18.2038 15.0312H1.96297C1.45375 15.0312 0.965394 14.8289 0.605324 14.4689C0.245253 14.1088 0.0429688 13.6204 0.0429688 13.1112V3.13204C0.0429688 2.62282 0.245253 2.13446 0.605324 1.77439C0.965394 1.41432 1.45375 1.21204 1.96297 1.21204H18.2038C18.7129 1.21204 19.2013 1.41432 19.5615 1.77439C19.9215 2.13446 20.1238 2.62282 20.1238 3.13204V13.1064C20.1244 13.3589 20.0752 13.6091 19.979 13.8426C19.8828 14.0762 19.7414 14.2884 19.5631 14.4672C19.3848 14.646 19.1729 14.7879 18.9396 14.8846C18.7063 14.9814 18.4564 15.0312 18.2038 15.0312ZM1.96297 1.92964C1.64471 1.92964 1.33949 2.05606 1.11444 2.2811C0.889397 2.50615 0.762969 2.81137 0.762969 3.12964V13.1064C0.762969 13.4247 0.889397 13.73 1.11444 13.955C1.33949 14.18 1.64471 14.3064 1.96297 14.3064H18.2038C18.522 14.3064 18.8273 14.18 19.0523 13.955C19.2773 13.73 19.4038 13.4247 19.4038 13.1064V3.13204C19.4038 2.81377 19.2773 2.50855 19.0523 2.2835C18.8273 2.05846 18.522 1.93204 18.2038 1.93204L1.96297 1.92964Z"
    fill="#009CAE" />
  <path
    d="M4.04141 10.7017H3.30941C3.0072 10.7017 2.76221 10.9467 2.76221 11.2489V11.9809C2.76221 12.283 3.0072 12.5281 3.30941 12.5281H4.04141C4.34361 12.5281 4.58861 12.283 4.58861 11.9809V11.2489C4.58861 10.9467 4.34361 10.7017 4.04141 10.7017Z"
    fill="white" />
  <path
    d="M4.04134 12.7679H3.32134C3.11233 12.7679 2.91186 12.6851 2.76385 12.5375C2.61585 12.3899 2.53237 12.1898 2.53174 11.9807V11.2487C2.53237 11.0397 2.61585 10.8395 2.76385 10.6919C2.91186 10.5445 3.11233 10.4615 3.32134 10.4615H4.04134C4.25033 10.4615 4.45081 10.5445 4.59882 10.6919C4.74683 10.8395 4.8303 11.0397 4.83094 11.2487V11.9807C4.8303 12.1898 4.74683 12.3899 4.59882 12.5375C4.45081 12.6851 4.25033 12.7679 4.04134 12.7679ZM3.32134 10.9415C3.28079 10.9412 3.24059 10.949 3.20304 10.9642C3.16549 10.9796 3.13134 11.0021 3.10255 11.0307C3.07378 11.0593 3.05093 11.0932 3.03534 11.1307C3.01975 11.1681 3.01174 11.2082 3.01174 11.2487V11.9807C3.01231 12.0608 3.04389 12.1376 3.09983 12.1948C3.15576 12.2521 3.23171 12.2854 3.31174 12.2879H4.03174C4.11343 12.2879 4.19182 12.2557 4.24981 12.1981C4.3078 12.1406 4.3407 12.0625 4.34134 11.9807V11.2487C4.34134 11.2082 4.33331 11.1681 4.31772 11.1307C4.30213 11.0932 4.2793 11.0593 4.25051 11.0307C4.22173 11.0021 4.18758 10.9796 4.15003 10.9642C4.11249 10.949 4.07227 10.9412 4.03174 10.9415H3.32134Z"
    fill="#009CAE" />
  <path
    d="M7.24551 10.7017H6.51351C6.21129 10.7017 5.96631 10.9467 5.96631 11.2489V11.9809C5.96631 12.283 6.21129 12.5281 6.51351 12.5281H7.24551C7.54772 12.5281 7.79271 12.283 7.79271 11.9809V11.2489C7.79271 10.9467 7.54772 10.7017 7.24551 10.7017Z"
    fill="white" />
  <path
    d="M7.24527 12.7679H6.51327C6.30449 12.7679 6.10427 12.685 5.95663 12.5374C5.80901 12.3897 5.72607 12.1895 5.72607 11.9807V11.2487C5.72607 11.0399 5.80901 10.8398 5.95663 10.6921C6.10427 10.5445 6.30449 10.4615 6.51327 10.4615H7.24527C7.45405 10.4615 7.65428 10.5445 7.80191 10.6921C7.94953 10.8398 8.03247 11.0399 8.03247 11.2487V11.9807C8.03247 12.0842 8.01211 12.1865 7.97255 12.2819C7.93299 12.3775 7.875 12.4643 7.80191 12.5374C7.7288 12.6105 7.64203 12.6685 7.54652 12.7081C7.45101 12.7475 7.34864 12.7679 7.24527 12.7679ZM6.51327 10.9415C6.43179 10.9415 6.35366 10.9739 6.29605 11.0315C6.23844 11.0891 6.20607 11.1673 6.20607 11.2487V11.9807C6.2067 12.062 6.23927 12.1397 6.29675 12.1972C6.35421 12.2547 6.43199 12.2873 6.51327 12.2879H7.24527C7.32674 12.2879 7.40489 12.2555 7.4625 12.1979C7.52011 12.1403 7.55247 12.0622 7.55247 11.9807V11.2487C7.55247 11.1673 7.52011 11.0891 7.4625 11.0315C7.40489 10.9739 7.32674 10.9415 7.24527 10.9415H6.51327Z"
    fill="#009CAE" />
  <path
    d="M10.4496 10.7017H9.71761C9.4154 10.7017 9.17041 10.9467 9.17041 11.2489V11.9809C9.17041 12.283 9.4154 12.5281 9.71761 12.5281H10.4496C10.7518 12.5281 10.9968 12.283 10.9968 11.9809V11.2489C10.9968 10.9467 10.7518 10.7017 10.4496 10.7017Z"
    fill="white" />
  <path
    d="M10.4496 12.7679H9.72958C9.52081 12.7679 9.32058 12.685 9.17295 12.5374C9.02533 12.3897 8.94238 12.1895 8.94238 11.9807V11.2487C8.94238 11.0399 9.02533 10.8398 9.17295 10.6921C9.32058 10.5445 9.52081 10.4615 9.72958 10.4615H10.4496C10.6584 10.4615 10.8586 10.5445 11.0062 10.6921C11.1539 10.8398 11.2368 11.0399 11.2368 11.2487V11.9807C11.2368 12.0842 11.2164 12.1865 11.1769 12.2819C11.1373 12.3775 11.0793 12.4643 11.0062 12.5374C10.9331 12.6105 10.8463 12.6685 10.7508 12.7081C10.6553 12.7475 10.553 12.7679 10.4496 12.7679ZM9.72958 10.9415C9.64812 10.9415 9.56997 10.9739 9.51236 11.0315C9.45475 11.0891 9.42238 11.1673 9.42238 11.2487V11.9807C9.42238 12.0622 9.45475 12.1403 9.51236 12.1979C9.56997 12.2555 9.64812 12.2879 9.72958 12.2879H10.4496C10.5309 12.2873 10.6086 12.2547 10.6661 12.1972C10.7236 12.1397 10.7562 12.062 10.7568 11.9807V11.2487C10.7568 11.1673 10.7244 11.0891 10.6668 11.0315C10.6092 10.9739 10.5311 10.9415 10.4496 10.9415H9.72958Z"
    fill="#009CAE" />
  <path
    d="M13.6508 10.7017H12.9188C12.6166 10.7017 12.3716 10.9467 12.3716 11.2489V11.9809C12.3716 12.283 12.6166 12.5281 12.9188 12.5281H13.6508C13.9529 12.5281 14.198 12.283 14.198 11.9809V11.2489C14.198 10.9467 13.9529 10.7017 13.6508 10.7017Z"
    fill="white" />
  <path
    d="M13.6512 12.7679H12.9312C12.7222 12.7679 12.5218 12.6851 12.3737 12.5375C12.2257 12.3899 12.1422 12.1898 12.1416 11.9807V11.2487C12.1422 11.0397 12.2257 10.8395 12.3737 10.6919C12.5218 10.5445 12.7222 10.4615 12.9312 10.4615H13.6512C13.8602 10.4615 14.0606 10.5445 14.2087 10.6919C14.3567 10.8395 14.4402 11.0397 14.4408 11.2487V11.9807C14.4402 12.1898 14.3567 12.3899 14.2087 12.5375C14.0606 12.6851 13.8602 12.7679 13.6512 12.7679ZM12.9312 10.9415C12.8906 10.9412 12.8504 10.949 12.8129 10.9642C12.7753 10.9796 12.7412 11.0021 12.7124 11.0307C12.6836 11.0593 12.6608 11.0932 12.6452 11.1307C12.6296 11.1681 12.6216 11.2082 12.6216 11.2487V11.9807C12.6222 12.0625 12.6551 12.1406 12.7132 12.1981C12.7711 12.2557 12.8495 12.2879 12.9312 12.2879H13.6512C13.7329 12.2879 13.8113 12.2557 13.8692 12.1981C13.9273 12.1406 13.9602 12.0625 13.9608 11.9807V11.2487C13.9608 11.2082 13.9528 11.1681 13.9372 11.1307C13.9216 11.0932 13.8988 11.0593 13.87 11.0307C13.8412 11.0021 13.8071 10.9796 13.7695 10.9642C13.732 10.949 13.6918 10.9412 13.6512 10.9415H12.9312Z"
    fill="#009CAE" />
  <path
    d="M4.04141 7.68005H3.30941C3.0072 7.68005 2.76221 7.92505 2.76221 8.22725V8.95925C2.76221 9.26141 3.0072 9.50645 3.30941 9.50645H4.04141C4.34361 9.50645 4.58861 9.26141 4.58861 8.95925V8.22725C4.58861 7.92505 4.34361 7.68005 4.04141 7.68005Z"
    fill="white" />
  <path
    d="M4.0414 9.74646H3.3214C3.11239 9.74646 2.91192 9.66366 2.76391 9.51606C2.61591 9.36846 2.53243 9.1683 2.5318 8.95926V8.23926C2.53053 8.13557 2.5497 8.03265 2.58821 7.93636C2.62673 7.84007 2.68383 7.75232 2.75626 7.67811C2.82869 7.60389 2.91503 7.54467 3.01035 7.50383C3.10567 7.46298 3.20811 7.44131 3.3118 7.44006H4.0318C4.24121 7.44006 4.44205 7.52325 4.59012 7.67133C4.7382 7.81941 4.8214 8.02025 4.8214 8.22966V8.94966C4.82332 9.1587 4.74229 9.35994 4.59607 9.50922C4.44987 9.65862 4.25039 9.74394 4.0414 9.74646ZM3.3214 7.92006C3.23928 7.92006 3.16054 7.95268 3.10247 8.01075C3.04441 8.0688 3.0118 8.14755 3.0118 8.22966V8.94966C3.0118 8.99021 3.01981 9.0303 3.0354 9.06774C3.05099 9.10518 3.07384 9.13914 3.10261 9.1677C3.1314 9.19626 3.16555 9.21882 3.2031 9.23418C3.24065 9.24942 3.28085 9.25722 3.3214 9.25686H4.0414C4.08193 9.25722 4.12215 9.24942 4.15969 9.23418C4.19724 9.21882 4.23139 9.19626 4.26017 9.1677C4.28896 9.13914 4.31179 9.10518 4.32738 9.06774C4.34297 9.0303 4.351 8.99021 4.351 8.94966V8.22966C4.351 8.14755 4.31838 8.0688 4.26031 8.01075C4.20226 7.95268 4.1235 7.92006 4.0414 7.92006H3.3214Z"
    fill="#009CAE" />
  <path
    d="M7.24551 7.68005H6.51351C6.21129 7.68005 5.96631 7.92505 5.96631 8.22725V8.95925C5.96631 9.26141 6.21129 9.50645 6.51351 9.50645H7.24551C7.54772 9.50645 7.79271 9.26141 7.79271 8.95925V8.22725C7.79271 7.92505 7.54772 7.68005 7.24551 7.68005Z"
    fill="white" />
  <path
    d="M7.24528 9.74638H6.51328C6.3045 9.74638 6.10427 9.66347 5.95665 9.51587C5.80901 9.36815 5.72608 9.16799 5.72608 8.95919V8.23919C5.72577 8.1356 5.74589 8.03298 5.78531 7.93719C5.82473 7.84141 5.88267 7.75435 5.95579 7.68099C6.02892 7.60764 6.11581 7.54944 6.21148 7.50973C6.30714 7.47002 6.40969 7.44958 6.51328 7.44958H7.24528C7.34886 7.44958 7.45141 7.47002 7.54708 7.50973C7.64274 7.54944 7.72963 7.60764 7.80276 7.68099C7.87589 7.75435 7.93383 7.84141 7.97325 7.93719C8.01267 8.03298 8.03279 8.1356 8.03248 8.23919V8.95919C8.03248 9.16799 7.94955 9.36815 7.80191 9.51587C7.65429 9.66347 7.45405 9.74638 7.24528 9.74638ZM6.51328 7.91998C6.43158 7.92061 6.35345 7.95351 6.29591 8.01151C6.23837 8.06949 6.20608 8.14788 6.20608 8.22958V8.94958C6.20608 9.03106 6.23844 9.10918 6.29605 9.16678C6.35367 9.22438 6.4318 9.25678 6.51328 9.25678H7.24528C7.32676 9.25678 7.40489 9.22438 7.4625 9.16678C7.52011 9.10918 7.55248 9.03106 7.55248 8.94958V8.22958C7.55279 8.18904 7.54509 8.14882 7.52979 8.11128C7.51449 8.07373 7.49191 8.03959 7.46335 8.0108C7.43479 7.98202 7.40082 7.95918 7.36339 7.94359C7.32597 7.928 7.28583 7.91997 7.24528 7.91998H6.51328Z"
    fill="#009CAE" />
  <path
    d="M10.4496 7.68005H9.71761C9.4154 7.68005 9.17041 7.92505 9.17041 8.22725V8.95925C9.17041 9.26141 9.4154 9.50645 9.71761 9.50645H10.4496C10.7518 9.50645 10.9968 9.26141 10.9968 8.95925V8.22725C10.9968 7.92505 10.7518 7.68005 10.4496 7.68005Z"
    fill="white" />
  <path
    d="M10.4496 9.74638H9.72959C9.5208 9.74638 9.32058 9.66347 9.17294 9.51587C9.02532 9.36815 8.94239 9.16799 8.94239 8.95919V8.23919C8.94206 8.1356 8.9622 8.03298 9.00161 7.93719C9.04103 7.84141 9.09896 7.75435 9.17209 7.68099C9.24523 7.60764 9.33211 7.54944 9.42777 7.50973C9.52344 7.47002 9.626 7.44958 9.72959 7.44958H10.4496C10.5532 7.44958 10.6557 7.47002 10.7514 7.50973C10.8471 7.54944 10.9339 7.60764 11.0071 7.68099C11.0802 7.75435 11.1381 7.84141 11.1776 7.93719C11.217 8.03298 11.2371 8.1356 11.2368 8.23919V8.95919C11.2368 9.16799 11.1538 9.36815 11.0062 9.51587C10.8586 9.66347 10.6584 9.74638 10.4496 9.74638ZM9.72959 7.91998C9.68904 7.91997 9.64889 7.928 9.61146 7.94359C9.57403 7.95918 9.54006 7.98202 9.5115 8.0108C9.48295 8.03959 9.46037 8.07373 9.44508 8.11128C9.42978 8.14882 9.42206 8.18904 9.42239 8.22958V8.94958C9.42239 9.03106 9.45475 9.10918 9.51236 9.16678C9.56997 9.22438 9.64811 9.25678 9.72959 9.25678H10.4496C10.5311 9.25678 10.6092 9.22438 10.6668 9.16678C10.7244 9.10918 10.7568 9.03106 10.7568 8.94958V8.22958C10.7568 8.14788 10.7245 8.06949 10.667 8.01151C10.6094 7.95351 10.5313 7.92061 10.4496 7.91998H9.72959Z"
    fill="#009CAE" />
  <path
    d="M13.6508 7.68005H12.9188C12.6166 7.68005 12.3716 7.92505 12.3716 8.22725V8.95925C12.3716 9.26141 12.6166 9.50645 12.9188 9.50645H13.6508C13.9529 9.50645 14.198 9.26141 14.198 8.95925V8.22725C14.198 7.92505 13.9529 7.68005 13.6508 7.68005Z"
    fill="white" />
  <path
    d="M13.6512 9.74638H12.9312C12.7222 9.74638 12.5218 9.66347 12.3737 9.51599C12.2257 9.36839 12.1422 9.16823 12.1416 8.95919V8.23919C12.1416 8.02976 12.2248 7.82893 12.3728 7.68085C12.5209 7.53277 12.7218 7.44958 12.9312 7.44958H13.6512C13.8606 7.44958 14.0615 7.53277 14.2096 7.68085C14.3576 7.82893 14.4408 8.02976 14.4408 8.23919V8.95919C14.4402 9.16823 14.3567 9.36839 14.2087 9.51599C14.0606 9.66347 13.8602 9.74638 13.6512 9.74638ZM12.9312 7.91998C12.8491 7.91998 12.7704 7.9526 12.7123 8.01066C12.6542 8.06872 12.6216 8.14747 12.6216 8.22958V8.94958C12.6216 8.99012 12.6296 9.03023 12.6452 9.06767C12.6608 9.10511 12.6836 9.13907 12.7124 9.16763C12.7412 9.19619 12.7753 9.21874 12.8129 9.2341C12.8504 9.24934 12.8906 9.25714 12.9312 9.25678H13.6512C13.6918 9.25714 13.732 9.24934 13.7695 9.2341C13.8071 9.21874 13.8412 9.19619 13.87 9.16763C13.8988 9.13907 13.9216 9.10511 13.9372 9.06767C13.9528 9.03023 13.9608 8.99012 13.9608 8.94958V8.22958C13.9608 8.14747 13.9282 8.06872 13.8701 8.01066C13.8121 7.9526 13.7333 7.91998 13.6512 7.91998H12.9312Z"
    fill="#009CAE" />
  <path
    d="M16.8549 7.68005H16.1229C15.8207 7.68005 15.5757 7.92505 15.5757 8.22725V8.95925C15.5757 9.26141 15.8207 9.50645 16.1229 9.50645H16.8549C17.157 9.50645 17.4021 9.26141 17.4021 8.95925V8.22725C17.4021 7.92505 17.157 7.68005 16.8549 7.68005Z"
    fill="white" />
  <path
    d="M16.8549 9.74638H16.1349C15.9261 9.74638 15.7259 9.66347 15.5782 9.51587C15.4306 9.36815 15.3477 9.16799 15.3477 8.95919V8.23919C15.3473 8.1356 15.3675 8.03298 15.4069 7.93719C15.4463 7.84141 15.5043 7.75435 15.5773 7.68099C15.6505 7.60764 15.7374 7.54944 15.8331 7.50973C15.9287 7.47002 16.0313 7.44958 16.1349 7.44958H16.8549C16.9584 7.44958 17.061 7.47002 17.1567 7.50973C17.2523 7.54944 17.3392 7.60764 17.4124 7.68099C17.4855 7.75435 17.5434 7.84141 17.5828 7.93719C17.6223 8.03298 17.6424 8.1356 17.6421 8.23919V8.95919C17.6421 9.16799 17.5591 9.36815 17.4115 9.51587C17.2638 9.66347 17.0637 9.74638 16.8549 9.74638ZM16.1349 7.91998C16.0531 7.92061 15.975 7.95351 15.9175 8.01151C15.8599 8.06949 15.8277 8.14788 15.8277 8.22958V8.94958C15.8277 9.03106 15.8601 9.10918 15.9177 9.16678C15.9753 9.22438 16.0534 9.25678 16.1349 9.25678H16.8549C16.9363 9.25678 17.0145 9.22438 17.0721 9.16678C17.1297 9.10918 17.1621 9.03106 17.1621 8.94958V8.22958C17.1624 8.18904 17.1546 8.14882 17.1394 8.11128C17.124 8.07373 17.1015 8.03959 17.0729 8.0108C17.0443 7.98202 17.0104 7.95918 16.9729 7.94359C16.9355 7.928 16.8954 7.91997 16.8549 7.91998H16.1349Z"
    fill="#009CAE" />
  <path
    d="M4.04141 4.66077H3.30941C3.0072 4.66077 2.76221 4.90575 2.76221 5.20797V5.93997C2.76221 6.24217 3.0072 6.48717 3.30941 6.48717H4.04141C4.34361 6.48717 4.58861 6.24217 4.58861 5.93997V5.20797C4.58861 4.90575 4.34361 4.66077 4.04141 4.66077Z"
    fill="white" />
  <path
    d="M4.04134 6.72714H3.32134C3.11233 6.72714 2.91186 6.64428 2.76385 6.49673C2.61585 6.34916 2.53237 6.14894 2.53174 5.93994V5.21994C2.53237 5.01095 2.61585 4.81073 2.76385 4.66316C2.91186 4.5156 3.11233 4.43274 3.32134 4.43274H4.04134C4.25033 4.43274 4.45081 4.5156 4.59882 4.66316C4.74683 4.81073 4.8303 5.01095 4.83094 5.21994V5.93994C4.8303 6.14894 4.74683 6.34916 4.59882 6.49673C4.45081 6.64428 4.25033 6.72714 4.04134 6.72714ZM3.32134 4.90074C3.28079 4.90043 3.24059 4.90814 3.20304 4.92343C3.16549 4.93873 3.13134 4.96132 3.10255 4.98986C3.07378 5.01842 3.05093 5.0524 3.03534 5.08982C3.01975 5.12725 3.01174 5.1674 3.01174 5.20794V5.92794C3.01237 6.00964 3.04527 6.08777 3.10326 6.14532C3.16125 6.20286 3.23964 6.23515 3.32134 6.23514H4.04134C4.12303 6.23515 4.20142 6.20286 4.25941 6.14532C4.3174 6.08777 4.3503 6.00964 4.35094 5.92794V5.20794C4.35094 5.1674 4.34291 5.12725 4.32732 5.08982C4.31173 5.0524 4.2889 5.01842 4.26011 4.98986C4.23133 4.96132 4.19718 4.93873 4.15963 4.92343C4.12209 4.90814 4.08187 4.90043 4.04134 4.90074H3.32134Z"
    fill="#009CAE" />
  <path
    d="M7.24551 4.66077H6.51351C6.21129 4.66077 5.96631 4.90575 5.96631 5.20797V5.93997C5.96631 6.24217 6.21129 6.48717 6.51351 6.48717H7.24551C7.54772 6.48717 7.79271 6.24217 7.79271 5.93997V5.20797C7.79271 4.90575 7.54772 4.66077 7.24551 4.66077Z"
    fill="white" />
  <path
    d="M7.24527 6.72714H6.51327C6.30449 6.72714 6.10427 6.64421 5.95663 6.49658C5.80901 6.34895 5.72607 6.14873 5.72607 5.93994V5.21994C5.72607 5.01116 5.80901 4.81094 5.95663 4.66331C6.10427 4.51568 6.30449 4.43274 6.51327 4.43274H7.24527C7.45405 4.43274 7.65428 4.51568 7.80191 4.66331C7.94953 4.81094 8.03247 5.01116 8.03247 5.21994V5.93994C8.03247 6.14873 7.94953 6.34895 7.80191 6.49658C7.65428 6.64421 7.45405 6.72714 7.24527 6.72714ZM6.51327 4.90074C6.47293 4.90074 6.43298 4.9087 6.39571 4.92413C6.35844 4.93957 6.32457 4.96219 6.29605 4.99072C6.26753 5.01925 6.24489 5.05312 6.22945 5.09039C6.21402 5.12766 6.20607 5.16761 6.20607 5.20794V5.92794C6.2067 6.00923 6.23927 6.087 6.29675 6.14448C6.35421 6.20195 6.43199 6.23452 6.51327 6.23514H7.24527C7.32674 6.23514 7.40489 6.20278 7.4625 6.14516C7.52011 6.08755 7.55247 6.00942 7.55247 5.92794V5.20794C7.55247 5.16761 7.54453 5.12766 7.52909 5.09039C7.51365 5.05312 7.49102 5.01925 7.4625 4.99072C7.43396 4.96219 7.4001 4.93957 7.36283 4.92413C7.32555 4.9087 7.28562 4.90074 7.24527 4.90074H6.51327Z"
    fill="#009CAE" />
  <path
    d="M10.4496 4.66077H9.71761C9.4154 4.66077 9.17041 4.90575 9.17041 5.20797V5.93997C9.17041 6.24217 9.4154 6.48717 9.71761 6.48717H10.4496C10.7518 6.48717 10.9968 6.24217 10.9968 5.93997V5.20797C10.9968 4.90575 10.7518 4.66077 10.4496 4.66077Z"
    fill="white" />
  <path
    d="M10.4496 6.72714H9.72958C9.52081 6.72714 9.32058 6.64421 9.17295 6.49658C9.02533 6.34895 8.94238 6.14873 8.94238 5.93994V5.21994C8.94238 5.01116 9.02533 4.81094 9.17295 4.66331C9.32058 4.51568 9.52081 4.43274 9.72958 4.43274H10.4496C10.6584 4.43274 10.8586 4.51568 11.0062 4.66331C11.1539 4.81094 11.2368 5.01116 11.2368 5.21994V5.93994C11.2368 6.14873 11.1539 6.34895 11.0062 6.49658C10.8586 6.64421 10.6584 6.72714 10.4496 6.72714ZM9.72958 4.90074C9.68924 4.90074 9.6493 4.9087 9.61203 4.92413C9.57476 4.93957 9.54088 4.96219 9.51236 4.99072C9.48384 5.01925 9.4612 5.05312 9.44577 5.09039C9.43033 5.12766 9.42238 5.16761 9.42238 5.20794V5.92794C9.42238 6.00942 9.45475 6.08755 9.51236 6.14516C9.56997 6.20278 9.64812 6.23514 9.72958 6.23514H10.4496C10.5309 6.23452 10.6086 6.20195 10.6661 6.14448C10.7236 6.087 10.7562 6.00923 10.7568 5.92794V5.20794C10.7568 5.16761 10.7488 5.12766 10.7334 5.09039C10.718 5.05312 10.6953 5.01925 10.6668 4.99072C10.6383 4.96219 10.6044 4.93957 10.5671 4.92413C10.5299 4.9087 10.4899 4.90074 10.4496 4.90074H9.72958Z"
    fill="#009CAE" />
  <path
    d="M13.6508 4.66077H12.9188C12.6166 4.66077 12.3716 4.90575 12.3716 5.20797V5.93997C12.3716 6.24217 12.6166 6.48717 12.9188 6.48717H13.6508C13.9529 6.48717 14.198 6.24217 14.198 5.93997V5.20797C14.198 4.90575 13.9529 4.66077 13.6508 4.66077Z"
    fill="white" />
  <path
    d="M13.6512 6.72714H12.9312C12.7222 6.72714 12.5218 6.64428 12.3737 6.49673C12.2257 6.34916 12.1422 6.14894 12.1416 5.93994V5.21994C12.1422 5.01095 12.2257 4.81073 12.3737 4.66316C12.5218 4.5156 12.7222 4.43274 12.9312 4.43274H13.6512C13.8602 4.43274 14.0606 4.5156 14.2087 4.66316C14.3567 4.81073 14.4402 5.01095 14.4408 5.21994V5.93994C14.4402 6.14894 14.3567 6.34916 14.2087 6.49673C14.0606 6.64428 13.8602 6.72714 13.6512 6.72714ZM12.9312 4.90074C12.8906 4.90043 12.8504 4.90814 12.8129 4.92343C12.7753 4.93873 12.7412 4.96132 12.7124 4.98986C12.6836 5.01842 12.6608 5.0524 12.6452 5.08982C12.6296 5.12725 12.6216 5.1674 12.6216 5.20794V5.92794C12.6222 6.00964 12.6551 6.08777 12.7132 6.14532C12.7711 6.20286 12.8495 6.23515 12.9312 6.23514H13.6512C13.7329 6.23515 13.8113 6.20286 13.8692 6.14532C13.9273 6.08777 13.9602 6.00964 13.9608 5.92794V5.20794C13.9608 5.1674 13.9528 5.12725 13.9372 5.08982C13.9216 5.0524 13.8988 5.01842 13.87 4.98986C13.8412 4.96132 13.8071 4.93873 13.7695 4.92343C13.732 4.90814 13.6918 4.90043 13.6512 4.90074H12.9312Z"
    fill="#009CAE" />
  <path
    d="M16.8549 4.66077H16.1229C15.8207 4.66077 15.5757 4.90575 15.5757 5.20797V5.93997C15.5757 6.24217 15.8207 6.48717 16.1229 6.48717H16.8549C17.157 6.48717 17.4021 6.24217 17.4021 5.93997V5.20797C17.4021 4.90575 17.157 4.66077 16.8549 4.66077Z"
    fill="white" />
  <path
    d="M16.8549 6.72714H16.1349C15.9261 6.72714 15.7259 6.64421 15.5782 6.49658C15.4306 6.34895 15.3477 6.14873 15.3477 5.93994V5.21994C15.3477 5.01116 15.4306 4.81094 15.5782 4.66331C15.7259 4.51568 15.9261 4.43274 16.1349 4.43274H16.8549C17.0637 4.43274 17.2638 4.51568 17.4115 4.66331C17.5591 4.81094 17.6421 5.01116 17.6421 5.21994V5.93994C17.6421 6.14873 17.5591 6.34895 17.4115 6.49658C17.2638 6.64421 17.0637 6.72714 16.8549 6.72714ZM16.1349 4.90074C16.0935 4.89913 16.0523 4.90588 16.0137 4.92059C15.9749 4.93531 15.9396 4.95768 15.9099 4.98637C15.88 5.01505 15.8563 5.04947 15.8401 5.08754C15.8239 5.12562 15.8157 5.16658 15.8157 5.20794V5.92794C15.8163 6.00923 15.8489 6.087 15.9063 6.14448C15.9637 6.20195 16.0416 6.23452 16.1229 6.23514H16.8429C16.9243 6.23514 17.0025 6.20278 17.0601 6.14516C17.1177 6.08755 17.1501 6.00942 17.1501 5.92794V5.20794C17.1501 5.16761 17.1421 5.12766 17.1267 5.09039C17.1112 5.05312 17.0886 5.01925 17.0601 4.99072C17.0315 4.96219 16.9977 4.93957 16.9605 4.92413C16.9231 4.9087 16.8832 4.90074 16.8429 4.90074H16.1349Z"
    fill="#009CAE" />
  <path
    d="M3.67641 2.856C3.58093 2.856 3.48936 2.81807 3.42185 2.75056C3.35434 2.68305 3.31641 2.59148 3.31641 2.496V0.643203C3.31641 0.547719 3.35434 0.456159 3.42185 0.388647C3.48936 0.321135 3.58093 0.283203 3.67641 0.283203C3.77189 0.283203 3.86345 0.321135 3.93096 0.388647C3.99847 0.456159 4.03641 0.547719 4.03641 0.643203V2.496C4.03641 2.59148 3.99847 2.68305 3.93096 2.75056C3.86345 2.81807 3.77189 2.856 3.67641 2.856Z"
    fill="#FF8A00" />
  <path
    d="M16.4904 2.856C16.3949 2.856 16.3033 2.81807 16.2359 2.75056C16.1683 2.68305 16.1304 2.59148 16.1304 2.496V0.643203C16.1304 0.547719 16.1683 0.456159 16.2359 0.388647C16.3033 0.321135 16.3949 0.283203 16.4904 0.283203C16.5859 0.283203 16.6775 0.321135 16.7449 0.388647C16.8125 0.456159 16.8504 0.547719 16.8504 0.643203V2.496C16.8504 2.59148 16.8125 2.68305 16.7449 2.75056C16.6775 2.81807 16.5859 2.856 16.4904 2.856Z"
    fill="#FF8A00" />
  <path
    d="M6.88051 2.856C6.78502 2.856 6.69346 2.81807 6.62594 2.75056C6.55843 2.68305 6.52051 2.59148 6.52051 2.496V0.643203C6.52051 0.547719 6.55843 0.456159 6.62594 0.388647C6.69346 0.321135 6.78502 0.283203 6.88051 0.283203C6.97598 0.283203 7.06755 0.321135 7.13506 0.388647C7.20258 0.456159 7.24051 0.547719 7.24051 0.643203V2.496C7.24051 2.59148 7.20258 2.68305 7.13506 2.75056C7.06755 2.81807 6.97598 2.856 6.88051 2.856Z"
    fill="#FF8A00" />
  <path
    d="M10.0797 2.856C9.98425 2.856 9.89268 2.81807 9.82517 2.75056C9.75766 2.68305 9.71973 2.59148 9.71973 2.496V0.643203C9.71973 0.547719 9.75766 0.456159 9.82517 0.388647C9.89268 0.321135 9.98425 0.283203 10.0797 0.283203C10.1752 0.283203 10.2668 0.321135 10.3343 0.388647C10.4018 0.456159 10.4397 0.547719 10.4397 0.643203V2.496C10.4397 2.59148 10.4018 2.68305 10.3343 2.75056C10.2668 2.81807 10.1752 2.856 10.0797 2.856Z"
    fill="#FF8A00" />
  <path
    d="M13.2863 2.856C13.1907 2.856 13.0992 2.81807 13.0317 2.75056C12.9642 2.68305 12.9263 2.59148 12.9263 2.496V0.643203C12.9263 0.547719 12.9642 0.456159 13.0317 0.388647C13.0992 0.321135 13.1907 0.283203 13.2863 0.283203C13.3818 0.283203 13.4733 0.321135 13.5408 0.388647C13.6083 0.456159 13.6463 0.547719 13.6463 0.643203V2.496C13.6463 2.59148 13.6083 2.68305 13.5408 2.75056C13.4733 2.81807 13.3818 2.856 13.2863 2.856Z"
    fill="#FF8A00" />
  <path
    d="M19.7659 18.5304C21.8974 18.5304 23.6251 16.8025 23.6251 14.6712C23.6251 12.5398 21.8974 10.812 19.7659 10.812C17.6346 10.812 15.9067 12.5398 15.9067 14.6712C15.9067 16.8025 17.6346 18.5304 19.7659 18.5304Z"
    fill="white" />
  <path
    d="M19.7661 18.8904C18.9316 18.8904 18.1158 18.643 17.422 18.1793C16.7281 17.7157 16.1874 17.0568 15.868 16.2858C15.5487 15.5148 15.4651 14.6665 15.628 13.8481C15.7907 13.0296 16.1926 12.2778 16.7826 11.6878C17.3727 11.0977 18.1245 10.6959 18.943 10.5331C19.7614 10.3703 20.6098 10.4538 21.3807 10.7731C22.1517 11.0926 22.8106 11.6333 23.2743 12.3271C23.7378 13.021 23.9853 13.8367 23.9853 14.6712C23.9839 15.7899 23.5391 16.8623 22.7481 17.6532C21.9571 18.4443 20.8847 18.8891 19.7661 18.8904ZM19.7661 11.172C19.074 11.172 18.3975 11.3772 17.8221 11.7617C17.2465 12.1462 16.7981 12.6928 16.5333 13.3321C16.2684 13.9715 16.1991 14.6751 16.3341 15.3539C16.4692 16.0326 16.8024 16.6561 17.2918 17.1455C17.7811 17.6349 18.4047 17.9682 19.0834 18.1032C19.7622 18.2382 20.4658 18.1689 21.1051 17.904C21.7445 17.6392 22.2911 17.1907 22.6756 16.6152C23.0601 16.0398 23.2653 15.3633 23.2653 14.6712C23.2639 13.7436 22.8949 12.8543 22.239 12.1983C21.583 11.5423 20.6938 11.1733 19.7661 11.172Z"
    fill="#FF8A00" />
  <path d="M18.1079 15.0047L18.9911 15.8879L21.4247 13.4543" fill="white" />
  <path
    d="M18.991 16.128C18.9594 16.1282 18.9281 16.1221 18.8988 16.1102C18.8697 16.0982 18.843 16.0806 18.8206 16.0584L17.9374 15.1752C17.9152 15.1528 17.8976 15.1262 17.8857 15.097C17.8737 15.0679 17.8676 15.0367 17.8677 15.0051C17.8678 14.9736 17.8742 14.9424 17.8863 14.9133C17.8984 14.8842 17.9163 14.8578 17.9386 14.8356C17.961 14.8134 17.9876 14.7957 18.0167 14.7838C18.0459 14.7718 18.0771 14.7657 18.1086 14.7658C18.1402 14.766 18.1714 14.7723 18.2004 14.7844C18.2296 14.7966 18.256 14.8144 18.2782 14.8368L18.9982 15.5568L21.2638 13.2912C21.3088 13.2465 21.3696 13.2213 21.433 13.2213C21.4964 13.2213 21.5572 13.2465 21.6022 13.2912C21.6248 13.3135 21.6425 13.34 21.6548 13.3693C21.6669 13.3986 21.6732 13.4299 21.6732 13.4616C21.6732 13.4932 21.6669 13.5246 21.6548 13.5538C21.6425 13.5831 21.6248 13.6096 21.6022 13.632L19.1614 16.0584C19.139 16.0806 19.1124 16.0982 19.0832 16.1102C19.0539 16.1221 19.0226 16.1282 18.991 16.128Z"
    fill="#FF8A00" />
</svg>