<svg width="24" height="21" viewBox="0 0 24 21" fill="none" xmlns="http://www.w3.org/2000/svg">
  <path d="M4.59521 10.4024L13.4964 4.68802L18.87 8.30722L20.0881 16.8032L12.9662 16.0832L4.59521 10.4024Z"
    fill="white" />
  <path
    d="M5.58414 10.3664L12.8422 3.08002C13.0589 2.86138 13.1806 2.56546 13.1806 2.25682C13.1806 1.94818 13.0589 1.65226 12.8422 1.43362C12.6247 1.21582 12.3301 1.09354 12.023 1.09354C11.7159 1.09354 11.4214 1.21582 11.2038 1.43362L2.03035 10.6448C1.49937 11.1782 1.07815 11.8114 0.790766 12.5084C0.503384 13.2053 0.355469 13.9524 0.355469 14.7068C0.355469 15.4612 0.503384 16.2083 0.790766 16.9053C1.07815 17.6022 1.49937 18.2355 2.03035 18.7688C2.56109 19.3024 3.19125 19.7257 3.88482 20.0145C4.57839 20.3033 5.32179 20.4519 6.07254 20.4519C6.8233 20.4519 7.5667 20.3033 8.26027 20.0145C8.95384 19.7257 9.584 19.3024 10.1147 18.7688L11.5907 17.2832"
    fill="white" />
  <path
    d="M12.0226 0.725622C11.8242 0.723701 11.6274 0.761023 11.4434 0.835543C11.2594 0.910061 11.0918 1.02034 10.9502 1.16002L1.77677 10.3904C0.636622 11.5362 -0.00390626 13.0901 -0.00390625 14.7104C-0.00390624 16.3307 0.636622 17.8847 1.77677 19.0304C2.91692 20.1762 4.46329 20.8198 6.07571 20.8198C7.68812 20.8198 9.23449 20.1762 10.3746 19.0304L11.8506 17.5448C11.9139 17.4766 11.9483 17.3863 11.9467 17.293C11.9451 17.1998 11.9075 17.1108 11.8418 17.0448C11.7762 16.9789 11.6876 16.9411 11.5948 16.9395C11.502 16.9378 11.4122 16.9724 11.3443 17.036L9.86593 18.5216C8.86007 19.5321 7.49595 20.0996 6.07367 20.0994C4.65139 20.0992 3.28745 19.5312 2.28189 18.5204C1.27634 17.5096 0.711564 16.1388 0.711787 14.7096C0.712011 13.2803 1.27723 11.9097 2.28309 10.8992L11.4637 1.68082C11.6164 1.5349 11.819 1.45366 12.0298 1.45366C12.2404 1.45366 12.4431 1.5349 12.5957 1.68082C12.7449 1.83226 12.8284 2.03662 12.8284 2.24962C12.8284 2.46262 12.7449 2.66698 12.5957 2.81842L5.33055 10.112C5.26728 10.1803 5.23283 10.2705 5.23447 10.3638C5.2361 10.457 5.2737 10.5461 5.33934 10.6119C5.40498 10.6779 5.49353 10.7157 5.58633 10.7174C5.67914 10.719 5.76896 10.6844 5.83688 10.6208L13.0949 3.32002C13.3069 3.1069 13.4514 2.83534 13.51 2.53966C13.5684 2.2441 13.5384 1.93774 13.4236 1.65922C13.3089 1.3807 13.1145 1.14274 12.8651 0.975222C12.6157 0.807821 12.3225 0.718422 12.0226 0.718422V0.725622Z"
    fill="#009CAE" />
  <path
    d="M8.48299 10.748L14.4299 4.76005C14.6466 4.54141 14.7683 4.24549 14.7683 3.93685C14.7683 3.62833 14.6466 3.33229 14.4299 3.11365C14.2123 2.89585 13.9177 2.77357 13.6107 2.77357C13.3036 2.77357 13.009 2.89585 12.7915 3.11365L6.83984 9.10645"
    fill="white" />
  <path
    d="M13.6131 2.42239C13.4139 2.42203 13.2166 2.46126 13.0325 2.53782C12.8485 2.6145 12.6813 2.72695 12.5408 2.86879L6.58673 8.83999C6.55322 8.87323 6.52662 8.91283 6.50846 8.95651C6.49031 9.00019 6.48096 9.04711 6.48096 9.09439C6.48096 9.14167 6.49031 9.18859 6.50846 9.23227C6.52662 9.27595 6.55322 9.31555 6.58673 9.34879C6.6542 9.41563 6.74514 9.45307 6.83989 9.45307C6.93463 9.45307 7.02558 9.41563 7.09305 9.34879L13.0447 3.37758C13.1974 3.23166 13.4 3.15043 13.6107 3.15043C13.8214 3.15043 14.024 3.23166 14.1767 3.37758C14.2517 3.45198 14.3115 3.54055 14.3524 3.63811C14.3935 3.73567 14.4149 3.84043 14.4155 3.94639C14.4153 4.05235 14.3941 4.15723 14.353 4.25491C14.312 4.35259 14.2521 4.44103 14.1767 4.51519L8.22987 10.4936C8.19637 10.5268 8.16977 10.5664 8.15161 10.6101C8.13345 10.6538 8.12411 10.7007 8.12411 10.748C8.12411 10.7953 8.13345 10.8422 8.15161 10.8859C8.16977 10.9295 8.19637 10.9691 8.22987 11.0024C8.29735 11.0692 8.3883 11.1067 8.48304 11.1067C8.57778 11.1067 8.66873 11.0692 8.7362 11.0024L14.683 5.02398C14.8949 4.81099 15.0394 4.53966 15.098 4.24423C15.1565 3.9489 15.1268 3.64267 15.0123 3.36427C14.8977 3.08587 14.7038 2.84791 14.4548 2.68027C14.2057 2.51263 13.9129 2.42287 13.6131 2.42239Z"
    fill="#009CAE" />
  <path
    d="M10.482 12.1328L16.1208 6.46883C16.3375 6.25019 16.4592 5.95415 16.4592 5.64563C16.4592 5.33699 16.3375 5.04107 16.1208 4.82243C15.9032 4.60463 15.6086 4.48235 15.3015 4.48235C14.9944 4.48235 14.7 4.60463 14.4824 4.82243L8.83643 10.4912"
    fill="white" />
  <path
    d="M15.3015 4.12161C15.1023 4.12125 14.9051 4.16049 14.721 4.23705C14.5369 4.31373 14.3697 4.42617 14.2292 4.56801L8.59762 10.2368C8.53434 10.3051 8.49989 10.3953 8.50152 10.4886C8.50316 10.5818 8.54076 10.6709 8.6064 10.7369C8.67203 10.8027 8.76058 10.8405 8.8534 10.8422C8.9462 10.8438 9.03602 10.8092 9.10393 10.7456L14.7355 5.07681C14.8856 4.92597 15.0893 4.84125 15.3015 4.84125C15.5138 4.84125 15.7175 4.92597 15.8676 5.07681C16.0177 5.22765 16.1021 5.43225 16.1021 5.64561C16.1021 5.85897 16.0177 6.06357 15.8676 6.21441L10.2288 11.8784C10.1614 11.9475 10.124 12.0406 10.1249 12.1374C10.1258 12.2342 10.1649 12.3266 10.2336 12.3944C10.3023 12.4622 10.395 12.4998 10.4913 12.4989C10.5876 12.498 10.6796 12.4587 10.7471 12.3896L16.3835 6.72321C16.5955 6.51009 16.74 6.23853 16.7985 5.94297C16.857 5.64729 16.827 5.34093 16.7121 5.06241C16.5974 4.78389 16.403 4.54593 16.1537 4.37853C15.9043 4.21101 15.611 4.12161 15.3111 4.12161H15.3015Z"
    fill="#009CAE" />
  <path
    d="M18.9941 15.3416C17.1599 13.4216 15.2946 13.4936 13.4008 15.3416L9.16867 11.0888C8.95112 10.871 8.65655 10.7487 8.34949 10.7487C8.04241 10.7487 7.74784 10.871 7.53029 11.0888C7.31357 11.3074 7.19189 11.6034 7.19189 11.912C7.19189 12.2206 7.31357 12.5166 7.53029 12.7352L13.6801 18.92C14.2106 19.4535 14.8406 19.8768 15.534 20.1655C16.2274 20.4543 16.9706 20.6029 17.7211 20.6029C18.4717 20.6029 19.2149 20.4543 19.9082 20.1655C20.6017 19.8768 21.2316 19.4535 21.7621 18.92C22.2931 18.3869 22.7142 17.7539 23.0016 17.0571C23.2889 16.3603 23.4368 15.6135 23.4368 14.8592C23.4368 14.105 23.2889 13.3581 23.0016 12.6614C22.7142 11.9646 22.2931 11.3316 21.7621 10.7984L18.1964 7.20802"
    fill="white" />
  <path
    d="M18.1964 6.84794C18.1494 6.8477 18.1027 6.85694 18.0592 6.87506C18.0158 6.89318 17.9763 6.91994 17.9432 6.95354C17.8767 7.02134 17.8394 7.11278 17.8394 7.20794C17.8394 7.3031 17.8767 7.39454 17.9432 7.46234L21.509 11.0455C22.5018 12.0575 23.056 13.4229 23.051 14.844C23.046 16.265 22.482 17.6264 21.482 18.6312C20.482 19.6361 19.1274 20.2028 17.7132 20.2079C16.2991 20.213 14.9403 19.656 13.9333 18.6583L7.78342 12.4807C7.63435 12.3293 7.55075 12.1249 7.55075 11.9119C7.55075 11.6989 7.63435 11.4946 7.78342 11.3431C7.93612 11.1973 8.13876 11.1159 8.34944 11.1159C8.56013 11.1159 8.76276 11.1973 8.91547 11.3431L13.1475 15.5959C13.215 15.6621 13.3053 15.6991 13.3995 15.6991C13.4937 15.6991 13.5841 15.6621 13.6515 15.5959C14.5543 14.7151 15.438 14.2735 16.2786 14.2879C17.1193 14.3023 17.9122 14.7439 18.7362 15.5911C18.8036 15.6599 18.8955 15.6989 18.9915 15.6996C19.0876 15.7002 19.18 15.6625 19.2484 15.5947C19.3168 15.5269 19.3557 15.4346 19.3563 15.3381C19.357 15.2415 19.3195 15.1487 19.252 15.0799C18.2967 14.0887 17.3055 13.5775 16.2954 13.5607C15.34 13.5607 14.3703 13.9711 13.4102 14.8303L9.42179 10.8223C9.28066 10.6805 9.1131 10.5681 8.9287 10.4913C8.74429 10.4145 8.54665 10.375 8.34706 10.375C8.14746 10.375 7.94981 10.4145 7.76542 10.4913C7.58101 10.5681 7.41346 10.6805 7.27232 10.8223C7.13118 10.9642 7.01923 11.1325 6.94284 11.3179C6.86646 11.5032 6.82715 11.7018 6.82715 11.9023C6.82715 12.1029 6.86646 12.3015 6.94284 12.4868C7.01923 12.6721 7.13118 12.8405 7.27232 12.9823L13.427 19.1599C14.5671 20.3057 16.1134 20.9493 17.7259 20.9493C19.3383 20.9493 20.8846 20.3057 22.0249 19.1599C23.165 18.0142 23.8056 16.4603 23.8056 14.8399C23.8056 13.2196 23.165 11.6657 22.0249 10.5199L18.4496 6.95354C18.4167 6.91958 18.3774 6.8927 18.3338 6.87446C18.2902 6.85634 18.2436 6.84734 18.1964 6.84794Z"
    fill="#FF8A00" />
  <path
    d="M12.529 13.448L17.7976 8.1536C18.0143 7.93496 18.136 7.63904 18.136 7.3304C18.136 7.02188 18.0143 6.72584 17.7976 6.5072C17.58 6.2894 17.2855 6.16712 16.9784 6.16712C16.6714 6.16712 16.3768 6.2894 16.1592 6.5072L10.8906 11.8016"
    fill="white" />
  <path
    d="M16.9784 5.80639C16.7791 5.80579 16.5817 5.84491 16.3976 5.92147C16.2135 5.99815 16.0465 6.11071 15.906 6.25279L10.3843 11.8016L10.8906 12.3104L16.4124 6.76159C16.565 6.61567 16.7677 6.53443 16.9784 6.53443C17.189 6.53443 17.3917 6.61567 17.5444 6.76159C17.694 6.91267 17.778 7.11727 17.778 7.33039C17.778 7.54363 17.694 7.74811 17.5444 7.89919L12.0227 13.448L12.5289 13.9568L18.0507 8.40799C18.2628 8.19487 18.4072 7.92331 18.4657 7.62775C18.5243 7.33207 18.4943 7.02571 18.3794 6.74719C18.2647 6.46867 18.0703 6.23071 17.8209 6.06331C17.5714 5.89579 17.2783 5.80639 16.9784 5.80639Z"
    fill="#009CAE" />
</svg>