<svg width="65" height="65" viewBox="0 0 65 65" fill="none" xmlns="http://www.w3.org/2000/svg">
<path fill-rule="evenodd" clip-rule="evenodd" d="M48.5639 32.0206V27.9936C47.5088 27.4822 46.7438 26.2358 46.7438 24.7656C46.7438 22.848 48.0363 21.282 49.619 21.282C51.2016 21.282 52.4941 22.848 52.4941 24.7656C52.4941 26.2358 51.7292 27.4822 50.6741 27.9936V37.5817C50.7005 37.8693 50.7005 38.157 50.7005 38.4126V45.7635C50.7005 50.8771 47.2978 55 43.0774 55H21.9226C17.7022 55 14.2995 50.8771 14.2995 45.7635V38.4126C14.2995 38.093 14.2995 37.7415 14.3523 37.3899C14.3259 37.358 14.3259 37.326 14.3259 37.294V27.7379C13.2708 27.2266 12.5059 25.9482 12.5059 24.478C12.5059 22.5604 13.7984 20.9943 15.381 20.9943C16.99 20.9943 18.2562 22.5604 18.2562 24.478C18.2562 25.9482 17.5176 27.2266 16.4361 27.7379V31.9886C17.8341 30.2628 19.786 29.1761 21.9226 29.1761H43.0774C45.2403 29.1761 47.1659 30.2628 48.5639 32.0206ZM39.4373 46.2429C37.5381 46.2429 36.0082 44.3892 36.0082 42.0881C36.0082 39.8189 37.5381 37.9652 39.4373 37.9652C41.3101 37.9652 42.84 39.8189 42.84 42.0881C42.84 44.3892 41.3101 46.2429 39.4373 46.2429ZM25.5627 46.2429C23.6899 46.2429 22.16 44.3892 22.16 42.0881C22.16 39.8189 23.6899 37.9652 25.5627 37.9652C27.4619 37.9652 28.9918 39.8189 28.9918 42.0881C28.9918 44.3892 27.4619 46.2429 25.5627 46.2429ZM42.5762 49.7905H22.4238C20.4455 49.7905 18.8628 47.8409 18.8628 45.4439V38.7322C18.8628 36.3672 20.4455 34.4176 22.4238 34.4176H42.5762C44.5545 34.4176 46.1372 36.3672 46.1372 38.7322V45.4439C46.1372 47.8409 44.5545 49.7905 42.5762 49.7905ZM32.5 28.2812C32.3154 28.2812 32.1307 28.2173 31.9725 28.1214C31.6295 27.8658 31.4449 27.4503 31.4449 26.9709C31.4449 26.9709 31.4713 25.9482 31.2603 23.7109C29.0709 22.3047 27.7784 20.0355 27.7784 17.5426C27.7784 13.3878 31.4977 10 36.0346 10C40.5979 10 44.2907 13.3878 44.2907 17.5426C44.2907 21.7614 40.4924 25.1811 35.8499 25.0852C35.1377 26.3317 34.32 27.1626 33.0539 28.1214C32.8693 28.2173 32.6846 28.2812 32.5 28.2812ZM51.5445 36.0476C53.4701 36.2713 55 38.2528 55 40.6818V43.5263C55 45.9233 53.4701 47.9048 51.5445 48.1605C51.6764 47.3935 51.7556 46.5945 51.7556 45.7635V38.4126C51.7556 37.6136 51.6764 36.8146 51.5445 36.0476ZM13.4555 48.1605C11.5299 47.9048 10 45.9233 10 43.5263V40.6818C10 38.2528 11.5299 36.2713 13.4555 36.0476C13.3236 36.8146 13.2444 37.6136 13.2444 38.4126V45.7635C13.2444 46.5945 13.3236 47.3935 13.4555 48.1605Z" fill="#7459D9"/>
<circle cx="32.5" cy="32.5" r="31" stroke="#7459D9" stroke-width="3"/>
</svg>
