<svg width="25" height="24" viewBox="0 0 18 24" fill="none" xmlns="http://www.w3.org/2000/svg">
  <path
    d="M6.20409 21.6552L1.84569 11.1864C1.35544 10.0087 1.16346 8.72831 1.2868 7.45869C1.41014 6.18906 1.84497 4.96953 2.5527 3.90827C3.26044 2.84702 4.2192 1.97688 5.34392 1.37506C6.46862 0.773252 7.7245 0.458374 9.00009 0.458374C10.2719 0.457957 11.5242 0.770632 12.6465 1.3688C13.7688 1.96697 14.7266 2.83223 15.4353 3.88822C16.1441 4.9442 16.5819 6.15842 16.7103 7.42368C16.8386 8.68896 16.6536 9.96638 16.1713 11.1432L11.8801 21.6384C11.6509 22.2021 11.2592 22.685 10.7549 23.0255C10.2505 23.366 9.65626 23.5488 9.04774 23.5506C8.43917 23.5524 7.84384 23.3731 7.33748 23.0357C6.8311 22.6981 6.43658 22.2176 6.20409 21.6552Z"
    fill="white" />
  <path
    d="M9.03606 23.9016C8.35901 23.9075 7.69587 23.7094 7.13298 23.3332C6.57008 22.9569 6.1335 22.4199 5.88005 21.792L1.51445 11.3256C1.00176 10.0952 0.800278 8.75732 0.92785 7.43046C1.05541 6.10359 1.50807 4.82863 2.2458 3.7184C2.98351 2.60817 3.98353 1.69691 5.15735 1.06524C6.33116 0.433588 7.64258 0.101016 8.97555 0.0969614C10.3085 0.0929066 11.6219 0.417493 12.7996 1.042C13.9772 1.6665 14.9828 2.57167 15.7273 3.67739C16.4717 4.78311 16.9321 6.05529 17.0678 7.38135C17.2034 8.70741 17.0101 10.0465 16.5049 11.28L12.2089 21.7752C11.9576 22.4074 11.521 22.9487 10.9565 23.3282C10.3919 23.7077 9.72582 23.9076 9.04566 23.9016H9.03606ZM9.00005 0.818409C7.7844 0.81798 6.58746 1.11766 5.51543 1.69085C4.44339 2.26404 3.52945 3.09301 2.85469 4.1042C2.17994 5.11538 1.76525 6.2775 1.64742 7.48742C1.52959 8.69735 1.71227 9.91764 2.17925 11.04L6.53765 21.516C6.73808 22.0128 7.08379 22.4376 7.52954 22.7347C7.97529 23.032 8.50036 23.1876 9.03606 23.1816C9.57306 23.1864 10.099 23.0284 10.5445 22.7286C10.99 22.4287 11.3343 22.0009 11.5321 21.5016L15.8401 11.0064C16.2993 9.88412 16.4752 8.66609 16.3525 7.45973C16.2296 6.25337 15.8119 5.09575 15.1359 4.08901C14.4601 3.08226 13.5467 2.25732 12.4767 1.68695C11.4067 1.11656 10.2127 0.818284 9.00005 0.818409Z"
    fill="#009CAE" />
  <path
    d="M9.05752 11.6809C10.8735 11.6809 12.3455 10.2088 12.3455 8.39286C12.3455 6.57695 10.8735 5.10486 9.05752 5.10486C7.24162 5.10486 5.76953 6.57695 5.76953 8.39286C5.76953 10.2088 7.24162 11.6809 9.05752 11.6809Z"
    fill="#FF8A00" />
</svg>