<svg width="24" height="16" viewBox="0 0 24 16" fill="none" xmlns="http://www.w3.org/2000/svg">
  <path
    d="M15.6963 0.682373H2.27551C1.15416 0.682373 0.245117 1.59142 0.245117 2.71277V9.89117C0.245117 11.0126 1.15416 11.9216 2.27551 11.9216H15.6963C16.8177 11.9216 17.7267 11.0126 17.7267 9.89117V2.71277C17.7267 1.59142 16.8177 0.682373 15.6963 0.682373Z"
    fill="white" />
  <path
    d="M15.7418 12.4592H2.24902C1.66361 12.4586 1.10237 12.2257 0.688426 11.8118C0.274483 11.3978 0.0416509 10.8366 0.0410156 10.2512V2.67919C0.0416509 2.0938 0.274483 1.53254 0.688426 1.1186C1.10237 0.704664 1.66361 0.471827 2.24902 0.471191H15.7418C16.3272 0.471827 16.8884 0.704664 17.3024 1.1186C17.7163 1.53254 17.9492 2.0938 17.9498 2.67919V10.2512C17.9492 10.8366 17.7163 11.3978 17.3024 11.8118C16.8884 12.2257 16.3272 12.4586 15.7418 12.4592ZM2.24902 1.00879C1.80554 1.01196 1.3813 1.19036 1.06883 1.50508C0.756355 1.8198 0.581004 2.2453 0.581016 2.68879V10.2512C0.584183 10.6947 0.762581 11.1189 1.0773 11.4314C1.39202 11.7439 1.81752 11.9192 2.26102 11.9192H15.7418C16.1853 11.9192 16.6109 11.7439 16.9255 11.4314C17.2403 11.1189 17.4187 10.6947 17.4218 10.2512V2.67919C17.4218 2.23363 17.2448 1.80631 16.9297 1.49125C16.6147 1.17619 16.1874 0.999192 15.7418 0.999192L2.24902 1.00879Z"
    fill="#009CAE" />
  <path
    d="M17.8705 10.0833H17.4913C17.4907 10.3943 17.3674 10.6926 17.148 10.9133C16.9288 11.134 16.6312 11.2591 16.3201 11.2617H1.68012C1.36759 11.2617 1.06786 11.1375 0.846862 10.9165C0.625869 10.6955 0.501717 10.3957 0.501717 10.0833H0.120117C0.12112 10.2088 0.137236 10.3336 0.168117 10.4553H0.120117C0.120752 10.8688 0.285313 11.2653 0.577731 11.5577C0.870151 11.85 1.26657 12.0147 1.68012 12.0153H16.3201C16.7334 12.0147 17.1296 11.85 17.4216 11.5575C17.7137 11.265 17.8777 10.8685 17.8777 10.4553H17.8321C17.8597 10.3332 17.8727 10.2083 17.8705 10.0833Z"
    fill="#009CAE" />
  <path
    d="M10.1931 12.2312H7.75707C7.69092 12.2312 7.62657 12.2528 7.57375 12.2926C7.52092 12.3325 7.4825 12.3884 7.46427 12.452L6.79707 14.72C6.78369 14.7656 6.7811 14.8137 6.78948 14.8605C6.79786 14.9074 6.817 14.9516 6.84538 14.9898C6.87378 15.0279 6.91063 15.059 6.95305 15.0805C6.99548 15.102 7.04232 15.1132 7.08987 15.1136H10.9299C10.9782 15.1137 11.0259 15.1024 11.069 15.0806C11.1122 15.0586 11.1494 15.0268 11.1778 14.9876C11.2062 14.9485 11.2248 14.9031 11.2322 14.8554C11.2396 14.8076 11.2355 14.7586 11.2203 14.7128L10.4811 12.452C10.4621 12.3897 10.4241 12.335 10.3725 12.2954C10.3208 12.2558 10.2581 12.2334 10.1931 12.2312Z"
    fill="white" />
  <path
    d="M10.9272 15.5288H7.06562C6.95932 15.5275 6.85503 15.4997 6.76206 15.4483C6.66908 15.3968 6.59031 15.323 6.53282 15.2336C6.45896 15.1209 6.41322 14.992 6.39944 14.858C6.38565 14.7239 6.40423 14.5886 6.45362 14.4632L7.29362 12.3632C7.33944 12.2368 7.42194 12.1271 7.53055 12.0481C7.63916 11.9689 7.76894 11.9241 7.90322 11.9192H10.08C10.2146 11.923 10.3448 11.9675 10.4536 12.0467C10.5624 12.1261 10.6446 12.2363 10.6896 12.3632L11.5296 14.4632C11.5796 14.5885 11.5985 14.7239 11.5847 14.8581C11.5709 14.9923 11.5248 15.1211 11.4504 15.2336C11.3943 15.3221 11.3171 15.3953 11.2259 15.4468C11.1346 15.4983 11.032 15.5265 10.9272 15.5288ZM7.90322 12.4592C7.86242 12.4592 7.81922 12.5 7.79522 12.5624L6.96002 14.6648C6.94237 14.7079 6.93534 14.7545 6.93952 14.8009C6.9437 14.8473 6.95895 14.8919 6.98402 14.9312C6.99277 14.9473 7.00514 14.9609 7.02013 14.9714C7.03513 14.9818 7.05235 14.9885 7.07042 14.9912H10.9272C10.968 14.9912 10.9968 14.9528 11.0136 14.9312C11.0381 14.8917 11.0531 14.8471 11.0572 14.8009C11.0614 14.7545 11.0547 14.708 11.0376 14.6648L10.1976 12.56C10.1736 12.4976 10.128 12.4568 10.0872 12.4568L7.90322 12.4592Z"
    fill="#009CAE" />
  <path
    d="M15.1681 3.86243H2.6521C2.58081 3.86243 2.51243 3.83411 2.46203 3.78371C2.41162 3.7333 2.3833 3.66492 2.3833 3.59363C2.3833 3.52235 2.41162 3.45397 2.46203 3.40356C2.51243 3.35315 2.58081 3.32483 2.6521 3.32483H15.1681C15.2394 3.32483 15.3078 3.35315 15.3582 3.40356C15.4086 3.45397 15.4369 3.52235 15.4369 3.59363C15.4369 3.66492 15.4086 3.7333 15.3582 3.78371C15.3078 3.83411 15.2394 3.86243 15.1681 3.86243Z"
    fill="#FF8A00" />
  <path
    d="M15.1681 4.96643H2.6521C2.58081 4.96643 2.51243 4.93811 2.46203 4.8877C2.41162 4.83729 2.3833 4.76893 2.3833 4.69763C2.3833 4.62634 2.41162 4.55798 2.46203 4.50757C2.51243 4.45715 2.58081 4.42883 2.6521 4.42883H15.1681C15.2394 4.42883 15.3078 4.45715 15.3582 4.50757C15.4086 4.55798 15.4369 4.62634 15.4369 4.69763C15.4369 4.76893 15.4086 4.83729 15.3582 4.8877C15.3078 4.93811 15.2394 4.96643 15.1681 4.96643Z"
    fill="#FF8A00" />
  <path
    d="M15.1681 6.02484H2.65216C2.61456 6.02839 2.57663 6.02405 2.54081 6.0121C2.50499 6.00014 2.47206 5.98084 2.44414 5.95542C2.4162 5.93 2.39389 5.89903 2.37862 5.86449C2.36335 5.82995 2.35547 5.7926 2.35547 5.75484C2.35547 5.71708 2.36335 5.67973 2.37862 5.64519C2.39389 5.61066 2.4162 5.57969 2.44414 5.55427C2.47206 5.52886 2.50499 5.50955 2.54081 5.4976C2.57663 5.48563 2.61456 5.4813 2.65216 5.48484H15.1681C15.2353 5.49119 15.2977 5.52237 15.3432 5.57231C15.3887 5.62224 15.4139 5.68733 15.4139 5.75484C15.4139 5.82236 15.3887 5.88744 15.3432 5.93738C15.2977 5.98732 15.2353 6.0185 15.1681 6.02484Z"
    fill="#FF8A00" />
  <path
    d="M15.1684 7.12879H6.63403C6.56275 7.12879 6.49438 7.10047 6.44397 7.05005C6.39355 6.99964 6.36523 6.93128 6.36523 6.85999C6.36523 6.78869 6.39355 6.72033 6.44397 6.66992C6.49438 6.61951 6.56275 6.59119 6.63403 6.59119H15.1684C15.2397 6.59119 15.3081 6.61951 15.3585 6.66992C15.4089 6.72033 15.4372 6.78869 15.4372 6.85999C15.4372 6.93128 15.4089 6.99964 15.3585 7.05005C15.3081 7.10047 15.2397 7.12879 15.1684 7.12879Z"
    fill="#FF8A00" />
  <path
    d="M19.7212 6.27441H11.5228C10.6268 6.27441 9.90039 7.00079 9.90039 7.89681V13.6376C9.90039 14.5337 10.6268 15.26 11.5228 15.26H19.7212C20.6172 15.26 21.3436 14.5337 21.3436 13.6376V7.89681C21.3436 7.00079 20.6172 6.27441 19.7212 6.27441Z"
    fill="white" />
  <path
    d="M20.1289 15.5288H11.1145C10.7212 15.5288 10.3439 15.3726 10.0658 15.0944C9.78761 14.8163 9.63135 14.439 9.63135 14.0456V7.48882C9.63135 7.09544 9.78761 6.71819 10.0658 6.44004C10.3439 6.16188 10.7212 6.00562 11.1145 6.00562H20.1289C20.3237 6.00562 20.5165 6.04398 20.6965 6.11852C20.8765 6.19306 21.04 6.3023 21.1777 6.44004C21.3155 6.57776 21.4247 6.74128 21.4992 6.92122C21.5737 7.10117 21.6121 7.29404 21.6121 7.48882V14.0456C21.6121 14.2404 21.5737 14.4332 21.4992 14.6132C21.4247 14.7932 21.3155 14.9567 21.1777 15.0944C21.04 15.2322 20.8765 15.3414 20.6965 15.4159C20.5165 15.4904 20.3237 15.5288 20.1289 15.5288ZM11.1145 6.54322C10.8649 6.54694 10.6266 6.64775 10.45 6.82429C10.2735 7.00082 10.1727 7.23919 10.1689 7.48882V14.0456C10.1727 14.2952 10.2735 14.5337 10.45 14.7102C10.6266 14.8867 10.8649 14.9875 11.1145 14.9912H20.1289C20.3785 14.9875 20.617 14.8867 20.7935 14.7102C20.97 14.5337 21.0708 14.2952 21.0745 14.0456V7.48882C21.0708 7.23919 20.97 7.00082 20.7935 6.82429C20.617 6.64775 20.3785 6.54694 20.1289 6.54322H11.1145Z"
    fill="#009CAE" />
  <path
    d="M19.2531 8.3048H12.1443C12.073 8.3048 12.0046 8.27648 11.9542 8.22608C11.9038 8.17568 11.8755 8.10728 11.8755 8.036C11.8755 7.96472 11.9038 7.89634 11.9542 7.84593C12.0046 7.79553 12.073 7.76721 12.1443 7.76721H19.2531C19.3244 7.76721 19.3928 7.79553 19.4432 7.84593C19.4936 7.89634 19.5219 7.96472 19.5219 8.036C19.5219 8.10728 19.4936 8.17568 19.4432 8.22608C19.3928 8.27648 19.3244 8.3048 19.2531 8.3048Z"
    fill="#FF8A00" />
  <path
    d="M19.2531 9.40882H12.1443C12.073 9.40882 12.0046 9.3805 11.9542 9.3301C11.9038 9.2797 11.8755 9.2113 11.8755 9.14002C11.8755 9.06874 11.9038 9.00034 11.9542 8.94994C12.0046 8.89954 12.073 8.87122 12.1443 8.87122H19.2531C19.3244 8.87122 19.3928 8.89954 19.4432 8.94994C19.4936 9.00034 19.5219 9.06874 19.5219 9.14002C19.5219 9.2113 19.4936 9.2797 19.4432 9.3301C19.3928 9.3805 19.3244 9.40882 19.2531 9.40882Z"
    fill="#FF8A00" />
  <path
    d="M19.253 10.4672H12.1442C12.077 10.4609 12.0146 10.4297 11.9691 10.3798C11.9236 10.3298 11.8984 10.2648 11.8984 10.1972C11.8984 10.1297 11.9236 10.0646 11.9691 10.0147C12.0146 9.96481 12.077 9.93361 12.1442 9.92725H19.253C19.3202 9.93361 19.3826 9.96481 19.428 10.0147C19.4735 10.0646 19.4987 10.1297 19.4987 10.1972C19.4987 10.2648 19.4735 10.3298 19.428 10.3798C19.3826 10.4297 19.3202 10.4609 19.253 10.4672Z"
    fill="#FF8A00" />
  <path
    d="M19.2529 11.5712H14.4001C14.3289 11.5712 14.2605 11.5428 14.2101 11.4924C14.1597 11.442 14.1313 11.3736 14.1313 11.3024C14.1313 11.2311 14.1597 11.1627 14.2101 11.1123C14.2605 11.0619 14.3289 11.0336 14.4001 11.0336H19.2529C19.3242 11.0336 19.3926 11.0619 19.443 11.1123C19.4934 11.1627 19.5217 11.2311 19.5217 11.3024C19.5217 11.3736 19.4934 11.442 19.443 11.4924C19.3926 11.5428 19.3242 11.5712 19.2529 11.5712Z"
    fill="#FF8A00" />
  <path
    d="M20.5081 7.64722H23.0809C23.2718 7.64722 23.4549 7.72307 23.59 7.85809C23.725 7.99312 23.8009 8.17628 23.8009 8.3672V14.48C23.8009 14.7079 23.7104 14.9264 23.5492 15.0876C23.3881 15.2487 23.1696 15.3392 22.9417 15.3392H20.5081C20.3172 15.3392 20.134 15.2634 19.9989 15.1284C19.8639 14.9932 19.7881 14.8101 19.7881 14.6192V8.3672C19.7881 8.17628 19.8639 7.99312 19.9989 7.85809C20.134 7.72307 20.3172 7.64722 20.5081 7.64722Z"
    fill="white" />
  <path
    d="M23.1604 15.5264H20.326C20.135 15.5264 19.9519 15.4505 19.8168 15.3155C19.6818 15.1804 19.606 14.9973 19.606 14.8064V8.18715C19.606 7.99621 19.6818 7.81306 19.8168 7.67804C19.9519 7.54302 20.135 7.46716 20.326 7.46716H23.2636C23.4545 7.46716 23.6376 7.54302 23.7727 7.67804C23.9077 7.81306 23.9836 7.99621 23.9836 8.18715V14.7056C23.983 14.9235 23.896 15.1323 23.7416 15.2861C23.5873 15.44 23.3783 15.5264 23.1604 15.5264ZM20.326 7.82476C20.2301 7.82539 20.1383 7.86378 20.0704 7.9316C20.0026 7.99942 19.9642 8.09127 19.9636 8.18715V14.8064C19.9642 14.9022 20.0026 14.9942 20.0704 15.062C20.1383 15.1298 20.2301 15.1682 20.326 15.1688H23.1604C23.2212 15.1688 23.2814 15.1568 23.3376 15.1335C23.3938 15.1102 23.4449 15.0761 23.4878 15.033C23.5309 14.9901 23.565 14.9391 23.5883 14.8828C23.6116 14.8266 23.6236 14.7664 23.6236 14.7056V8.18715C23.6236 8.09151 23.5858 7.99964 23.5183 7.93174C23.4509 7.86386 23.3592 7.82539 23.2636 7.82476H20.326Z"
    fill="#009CAE" />
  <path
    d="M22.4569 8.36475H21.1201C20.9851 8.36475 20.8558 8.31111 20.7604 8.21571C20.665 8.12031 20.6113 7.9909 20.6113 7.85596C20.6113 7.75285 20.6522 7.65396 20.7252 7.58103C20.7982 7.50812 20.897 7.46716 21.0001 7.46716H22.5673C22.6704 7.46716 22.7693 7.50812 22.8422 7.58103C22.9152 7.65396 22.9561 7.75285 22.9561 7.85596C22.9561 7.98926 22.9038 8.11719 22.8106 8.21235C22.7172 8.30751 22.5902 8.36223 22.4569 8.36475ZM21.0169 7.82476C21.0091 7.82536 21.0017 7.82892 20.9964 7.8347C20.991 7.8405 20.9881 7.84808 20.9881 7.85596C20.9891 7.89184 21.0029 7.92619 21.0272 7.95265C21.0515 7.97912 21.0845 7.99592 21.1201 7.99995H22.4473C22.487 7.99995 22.5251 7.98436 22.5534 7.95652C22.5817 7.92868 22.5979 7.89085 22.5985 7.85116C22.5985 7.84288 22.5953 7.83495 22.5894 7.8291C22.5835 7.82325 22.5756 7.81996 22.5673 7.81996L21.0169 7.82476Z"
    fill="#009CAE" />
  <path
    d="M22.942 9.33925H20.6404C20.5927 9.33925 20.547 9.32029 20.5131 9.28657C20.4794 9.25273 20.4604 9.20701 20.4604 9.15925C20.4604 9.11149 20.4794 9.06577 20.5131 9.03193C20.547 8.99821 20.5927 8.97925 20.6404 8.97925H22.9348C22.9826 8.97925 23.0283 8.99821 23.0622 9.03193C23.0959 9.06577 23.1148 9.11149 23.1148 9.15925C23.1148 9.20701 23.0959 9.25273 23.0622 9.28657C23.0283 9.32029 22.9826 9.33925 22.9348 9.33925H22.942Z"
    fill="#FF8A00" />
  <path
    d="M22.9418 10.0112H20.6402C20.615 10.0141 20.5895 10.0117 20.5652 10.004C20.541 9.99648 20.5187 9.98376 20.4997 9.96684C20.4809 9.94992 20.4656 9.92928 20.4552 9.90612C20.4449 9.88296 20.4395 9.85788 20.4395 9.83244C20.4395 9.807 20.4449 9.78192 20.4552 9.75876C20.4656 9.7356 20.4809 9.71496 20.4997 9.69804C20.5187 9.68112 20.541 9.6684 20.5652 9.66084C20.5895 9.65316 20.615 9.65076 20.6402 9.65364H22.9346C22.9598 9.65076 22.9854 9.65316 23.0096 9.66084C23.0339 9.6684 23.0562 9.68112 23.0751 9.69804C23.0941 9.71496 23.1092 9.7356 23.1197 9.75876C23.13 9.78192 23.1354 9.807 23.1354 9.83244C23.1354 9.85788 23.13 9.88296 23.1197 9.90612C23.1092 9.92928 23.0941 9.94992 23.0751 9.96684C23.0562 9.98376 23.0339 9.99648 23.0096 10.004C22.9854 10.0117 22.9598 10.0141 22.9346 10.0112H22.9418Z"
    fill="#FF8A00" />
  <path
    d="M22.942 10.6784H22.0804C22.0326 10.6784 21.9869 10.6594 21.9531 10.6257C21.9194 10.5918 21.9004 10.5461 21.9004 10.4984C21.9004 10.4506 21.9194 10.4049 21.9531 10.371C21.9869 10.3373 22.0326 10.3184 22.0804 10.3184H22.9468C22.9946 10.3184 23.0403 10.3373 23.0741 10.371C23.1078 10.4049 23.1268 10.4506 23.1268 10.4984C23.1268 10.5461 23.1078 10.5918 23.0741 10.6257C23.0403 10.6594 22.9946 10.6784 22.9468 10.6784H22.942Z"
    fill="#FF8A00" />
</svg>